<svg width="40" height="40" viewBox="0 0 40 40" fill="none" xmlns="http://www.w3.org/2000/svg">
<g clip-path="url(#clip0)">
<path d="M20.0008 39.9996C31.0464 39.9996 40.0006 31.0454 40.0006 19.9998C40.0006 8.95423 31.0464 0 20.0008 0C8.9552 0 0.000976562 8.95423 0.000976562 19.9998C0.000976562 31.0454 8.9552 39.9996 20.0008 39.9996Z" fill="#1C89EE"/>
<path d="M32.2507 14.3733C31.3937 14.7533 30.4717 15.0104 29.5049 15.1252C30.4921 14.5337 31.2496 13.5978 31.6072 12.4809C30.6835 13.0289 29.6599 13.4264 28.5715 13.6406C27.6995 12.7119 26.457 12.1315 25.0812 12.1315C22.4416 12.1315 20.3007 14.2724 20.3007 16.912C20.3007 17.2867 20.3431 17.6514 20.4251 18.0015C16.4521 17.8022 12.9294 15.8992 10.5714 13.006C10.16 13.7119 9.92394 14.5337 9.92394 15.4097C9.92394 17.0678 10.7685 18.5317 12.0506 19.3887C11.2673 19.3641 10.5297 19.1492 9.88544 18.7901C9.88508 18.8105 9.88508 18.8308 9.88508 18.8508C9.88508 21.167 11.5336 23.099 13.7201 23.5379C13.3194 23.6477 12.8962 23.7058 12.4609 23.7058C12.1522 23.7058 11.853 23.6762 11.5614 23.6206C12.1696 25.5194 13.9347 26.9016 16.0271 26.9405C14.3907 28.2228 12.3297 28.9869 10.0894 28.9869C9.70433 28.9869 9.32286 28.9644 8.94958 28.9198C11.0641 30.2767 13.5775 31.0678 16.2771 31.0678C25.0702 31.0678 29.8788 23.7835 29.8788 17.4657C29.8788 17.2586 29.8742 17.0521 29.8649 16.8475C30.7997 16.1737 31.6101 15.3319 32.2507 14.3733Z" fill="#F1F2F2"/>
</g>
<defs>
<clipPath id="clip0">
<rect width="40" height="40" fill="white"/>
</clipPath>
</defs>
</svg>
